<svg width="27" height="27" viewBox="0 0 27 27" fill="none" xmlns="http://www.w3.org/2000/svg">
<path d="M10.748 10.4269C12.7093 11.1431 14.8468 11.1431 16.808 10.4269" stroke="#292D32" stroke-width="1.5" stroke-linecap="round" stroke-linejoin="round"/>
<path d="M19.0893 2.65909H8.46784C6.12098 2.65909 4.21484 4.57624 4.21484 6.91208V22.4366C4.21484 24.4199 5.63618 25.2572 7.37704 24.2987L12.7539 21.3128C13.3268 20.9932 14.2523 20.9932 14.8143 21.3128L20.1911 24.2987C21.932 25.2683 23.3533 24.4309 23.3533 22.4366V6.91208C23.3423 4.57624 21.4362 2.65909 19.0893 2.65909Z" stroke="#292D32" stroke-width="1.5" stroke-linecap="round" stroke-linejoin="round"/>
<path d="M19.0893 2.65909H8.46784C6.12098 2.65909 4.21484 4.57624 4.21484 6.91208V22.4366C4.21484 24.4199 5.63618 25.2572 7.37704 24.2987L12.7539 21.3128C13.3268 20.9932 14.2523 20.9932 14.8143 21.3128L20.1911 24.2987C21.932 25.2683 23.3533 24.4309 23.3533 22.4366V6.91208C23.3423 4.57624 21.4362 2.65909 19.0893 2.65909Z" stroke="#292D32" stroke-width="1.5" stroke-linecap="round" stroke-linejoin="round"/>
</svg>
